<svg width="880" height="800" viewBox="0 0 880 800" fill="none" xmlns="http://www.w3.org/2000/svg">
<g opacity="0.7" filter="url(#filter0_f_221_430)">
<circle cx="436" cy="404" r="148" fill="black"/>
</g>
<g filter="url(#filter1_f_221_430)">
<path d="M579.56 404C582.012 404 584.007 405.989 583.933 408.44C583.196 433.011 576.348 457.038 563.978 478.335C550.863 500.914 532.009 519.621 509.328 532.557C486.647 545.494 460.948 552.201 434.838 551.995C408.728 551.79 383.137 544.681 360.662 531.39C338.187 518.098 319.629 499.098 306.871 476.316C294.112 453.534 287.608 427.783 288.018 401.675C288.428 375.568 295.738 350.033 309.206 327.664C321.909 306.563 339.665 288.987 360.842 276.504C362.955 275.259 365.658 276.049 366.839 278.197C368.021 280.346 367.232 283.04 365.122 284.289C345.317 296.015 328.709 312.486 316.813 332.244C304.154 353.271 297.283 377.274 296.897 401.815C296.512 426.356 302.626 450.562 314.618 471.977C326.611 493.392 344.056 511.252 365.182 523.746C386.308 536.24 410.364 542.923 434.907 543.116C459.451 543.308 483.608 537.005 504.928 524.844C526.248 512.683 543.971 495.099 556.299 473.875C567.882 453.933 574.315 431.444 575.049 408.439C575.127 405.988 577.108 404 579.56 404Z" fill="#11DCE8"/>
</g>
<circle opacity="0.3" cx="435.797" cy="404" r="143.5" stroke="white"/>
<path d="M579.56 404C582.012 404 584.007 405.989 583.933 408.44C583.196 433.011 576.348 457.038 563.978 478.335C550.863 500.914 532.009 519.621 509.328 532.557C486.647 545.494 460.948 552.201 434.838 551.995C408.728 551.79 383.137 544.681 360.662 531.39C338.187 518.098 319.629 499.098 306.871 476.316C294.112 453.534 287.608 427.783 288.018 401.675C288.428 375.568 295.738 350.033 309.206 327.664C321.909 306.563 339.665 288.987 360.842 276.504C362.955 275.259 365.658 276.049 366.839 278.197C368.021 280.346 367.232 283.04 365.122 284.289C345.317 296.015 328.709 312.486 316.813 332.244C304.154 353.271 297.283 377.274 296.897 401.815C296.512 426.356 302.626 450.562 314.618 471.977C326.611 493.392 344.056 511.252 365.182 523.746C386.308 536.24 410.364 542.923 434.907 543.116C459.451 543.308 483.608 537.005 504.928 524.844C526.248 512.683 543.971 495.099 556.299 473.875C567.882 453.933 574.315 431.444 575.049 408.439C575.127 405.988 577.108 404 579.56 404Z" fill="white"/>
<path fill-rule="evenodd" clip-rule="evenodd" d="M386.398 412.612C383.025 412.612 380.032 411.917 377.418 410.528C374.847 409.096 372.823 407.138 371.347 404.654C369.872 402.17 369.134 399.307 369.134 396.065C369.134 392.823 369.851 389.96 371.284 387.475C372.76 384.991 374.783 383.054 377.355 381.665C379.969 380.233 382.941 379.517 386.272 379.517C389.644 379.517 392.616 380.233 395.188 381.665C397.802 383.054 399.826 384.991 401.259 387.475C402.735 389.96 403.472 392.823 403.472 396.065C403.472 399.307 402.735 402.17 401.259 404.654C399.826 407.138 397.823 409.096 395.251 410.528C392.68 411.917 389.729 412.612 386.398 412.612ZM391.36 393.403C391.394 393.462 391.427 393.521 391.458 393.582C391.642 393.057 391.62 392.598 391.394 392.205C391.128 391.745 390.644 391.484 389.942 391.42C389.877 391.413 389.867 391.303 389.931 391.292C390.584 391.18 391.168 391.153 391.685 391.211C392.586 391.3 393.209 391.642 393.553 392.238C393.897 392.834 393.882 393.544 393.508 394.369C393.153 395.183 392.496 396.042 391.537 396.947C390.574 397.844 389.373 398.707 387.934 399.538C386.478 400.379 385.111 400.997 383.834 401.394C382.572 401.772 381.49 401.917 380.589 401.828C379.688 401.739 379.066 401.397 378.721 400.801C378.377 400.205 378.383 399.5 378.739 398.686C378.957 398.205 379.275 397.711 379.694 397.205C379.735 397.156 379.824 397.219 379.797 397.277C379.515 397.909 379.507 398.455 379.772 398.914C379.997 399.305 380.381 399.552 380.922 399.657L380.907 399.632C380.392 398.731 380.134 397.693 380.134 396.517C380.134 395.342 380.384 394.304 380.885 393.403C381.401 392.502 382.108 391.8 383.007 391.296C383.92 390.777 384.959 390.517 386.123 390.517C387.302 390.517 388.34 390.777 389.239 391.296C390.152 391.8 390.86 392.502 391.36 393.403ZM384.446 402.316C384.984 402.45 385.558 402.517 386.167 402.517C387.331 402.517 388.362 402.266 389.261 401.762C390.16 401.243 390.86 400.533 391.36 399.632C391.786 398.888 392.036 398.05 392.111 397.119C391.913 397.36 391.701 397.594 391.476 397.809C390.589 398.65 389.482 399.46 388.157 400.238C387.878 400.402 387.462 400.589 387.003 400.795C386.026 401.235 384.861 401.759 384.446 402.316Z" fill="white"/>
<path d="M449.919 381.181H439.168V412.759H450.551V395.96C450.551 394.233 450.952 392.97 451.753 392.17C452.553 391.37 453.755 391.012 455.357 391.096C456.158 391.138 456.811 391.37 457.318 391.791C457.865 392.212 458.266 392.823 458.519 393.623C458.814 394.381 458.962 395.37 458.962 396.591V412.759H470.344V395.96C470.344 394.233 470.745 392.97 471.546 392.17C472.347 391.37 473.549 391.012 475.151 391.096C475.952 391.138 476.605 391.37 477.111 391.791C477.659 392.212 478.06 392.823 478.312 393.623C478.608 394.381 478.755 395.37 478.755 396.591V412.759H490.138V394.696C490.138 389.812 489.211 386.212 487.356 383.896C485.501 381.581 482.634 380.423 478.755 380.423C476.563 380.423 474.602 381.033 472.874 382.254C471.348 383.295 470.101 384.779 469.133 386.707C468.717 385.621 468.193 384.684 467.562 383.896C465.707 381.581 462.84 380.423 458.962 380.423C456.769 380.423 454.809 381.033 453.081 382.254C452.294 382.79 451.302 383.899 450.363 385.264L449.919 381.181Z" fill="white"/>
<path d="M500.458 378.632C498.771 378.632 497.296 378 496.031 376.737C494.766 375.474 494.134 374 494.134 372.316C494.134 370.589 494.766 369.116 496.031 367.895C497.296 366.632 498.771 366 500.458 366C502.186 366 503.662 366.632 504.884 367.895C506.149 369.116 506.781 370.589 506.781 372.316C506.781 374 506.149 375.474 504.884 376.737C503.662 378 502.186 378.632 500.458 378.632Z" fill="white"/>
<path d="M494.766 412.759V382.643C494.766 381.88 495.455 381.302 496.207 381.434Lnan nanCnan nan -nan -nan -nan -nanL-nan -nanC-nan -nan nan nan nan nanL496.207 381.434C499.019 381.928 501.896 381.928 504.708 381.434Lnan nanCnan nan -nan -nan -nan -nanL-nan -nanC-nan -nan nan nan nan nanL504.708 381.434C505.46 381.302 506.149 381.88 506.149 382.643V412.759H494.766Z" fill="white"/>
<path d="M420.555 413.517C418.447 413.517 416.487 413.223 414.674 412.633C412.861 412.044 411.301 411.223 409.994 410.17C408.73 409.075 407.844 407.77 407.338 406.254L416.381 402.717C416.845 403.854 417.499 404.591 418.342 404.928C419.185 405.223 419.923 405.37 420.555 405.37C421.23 405.37 421.778 405.223 422.199 404.928C422.621 404.633 422.832 404.212 422.832 403.665C422.832 403.075 422.537 402.591 421.946 402.212C421.356 401.791 420.45 401.433 419.227 401.138L416.634 400.507C413.81 399.791 411.681 398.549 410.247 396.781C408.814 395.012 408.097 392.949 408.097 390.591C408.097 387.349 409.278 384.844 411.639 383.075C414.042 381.307 417.288 380.423 421.377 380.423C423.865 380.423 425.951 380.738 427.638 381.37C429.366 381.96 430.779 382.802 431.875 383.896C432.971 384.991 433.814 386.254 434.404 387.686L425.614 391.033C425.319 390.191 424.813 389.581 424.096 389.202C423.422 388.823 422.579 388.633 421.567 388.633C420.85 388.633 420.281 388.802 419.86 389.138C419.48 389.475 419.291 389.875 419.291 390.338C419.291 390.844 419.585 391.286 420.176 391.665C420.808 392.002 421.757 392.338 423.021 392.675L425.614 393.307C427.553 393.77 429.24 394.486 430.673 395.454C432.107 396.381 433.224 397.538 434.025 398.928C434.826 400.317 435.226 401.917 435.226 403.728C435.226 405.791 434.615 407.56 433.393 409.033C432.17 410.465 430.462 411.581 428.27 412.381C426.078 413.138 423.506 413.517 420.555 413.517Z" fill="white"/>
<path fill-rule="evenodd" clip-rule="evenodd" d="M352.339 392.68L360.814 385.794C359.684 384.537 358.345 383.483 356.797 382.629C354.251 381.158 351.308 380.423 347.969 380.423C344.671 380.423 341.728 381.158 339.14 382.629C336.594 384.056 334.59 386.046 333.129 388.598C331.71 391.15 331 394.092 331 397.423C331 397.5 331 397.576 331.001 397.653C331 397.727 331 397.801 331 397.875C331 401.117 331.717 403.981 333.15 406.465C334.536 408.799 336.406 410.649 338.76 412.017C338.906 412.107 339.053 412.195 339.203 412.281C341.791 413.709 344.754 414.423 348.094 414.423C348.101 414.423 348.109 414.423 348.116 414.423C348.123 414.423 348.13 414.423 348.138 414.423C351.51 414.423 354.482 413.707 357.054 412.275C359.668 410.886 361.692 408.949 363.125 406.465C364.336 404.426 365.05 402.133 365.267 399.584C365.279 399.446 365.169 399.328 365.03 399.328C364.911 399.328 364.811 399.415 364.792 399.532C364.481 401.483 363.82 403.263 362.808 404.874C362.127 405.991 361.31 406.991 360.359 407.872L352.333 401.35C352.691 400.987 352.996 400.568 353.249 400.092C353.744 399.202 353.992 398.174 353.992 397.007C353.992 395.854 353.744 394.825 353.249 393.921C352.997 393.455 352.694 393.041 352.339 392.68ZM343.946 394.45C343.544 395.205 343.343 396.07 343.343 397.045C343.343 398.007 343.544 398.86 343.946 399.603C344.361 400.346 344.928 400.925 345.647 401.339C346.366 401.765 347.195 401.979 348.134 401.979C349.073 401.979 349.902 401.765 350.621 401.339C351.34 400.925 351.901 400.34 352.303 399.585C352.718 398.842 352.925 397.983 352.925 397.008C352.925 396.046 352.718 395.187 352.303 394.432C351.901 393.689 351.34 393.104 350.621 392.677C349.902 392.263 349.073 392.056 348.134 392.056C347.195 392.056 346.366 392.269 345.647 392.696C344.928 393.122 344.361 393.707 343.946 394.45Z" fill="white"/>
<path fill-rule="evenodd" clip-rule="evenodd" d="M531.986 392.68L540.461 385.794C539.332 384.537 537.993 383.483 536.445 382.629C533.898 381.158 530.956 380.423 527.616 380.423C524.318 380.423 521.376 381.158 518.787 382.629C516.241 384.056 514.237 386.046 512.776 388.598C511.357 391.15 510.647 394.092 510.647 397.423C510.647 397.5 510.648 397.576 510.649 397.653C510.648 397.727 510.647 397.801 510.647 397.875C510.647 401.117 511.364 403.981 512.798 406.465C514.184 408.799 516.054 410.649 518.407 412.017C518.553 412.107 518.701 412.195 518.85 412.281C521.438 413.709 524.402 414.423 527.741 414.423C527.749 414.423 527.756 414.423 527.763 414.423C527.771 414.423 527.778 414.423 527.785 414.423C531.158 414.423 534.13 413.707 536.702 412.275C539.315 410.886 541.339 408.949 542.772 406.465C543.983 404.426 544.697 402.133 544.915 399.584C544.926 399.446 544.817 399.328 544.678 399.328C544.559 399.328 544.458 399.415 544.44 399.532C544.128 401.483 543.467 403.263 542.456 404.874C541.774 405.991 540.958 406.991 540.007 407.872L531.98 401.35C532.338 400.987 532.643 400.568 532.896 400.092C533.392 399.202 533.639 398.174 533.639 397.007C533.639 395.854 533.392 394.825 532.896 393.921C532.645 393.455 532.341 393.041 531.986 392.68ZM523.594 394.45C523.191 395.205 522.99 396.07 522.99 397.045C522.99 398.007 523.191 398.86 523.594 399.603C524.008 400.346 524.575 400.925 525.294 401.339C526.014 401.765 526.843 401.979 527.781 401.979C528.72 401.979 529.549 401.765 530.268 401.339C530.988 400.925 531.549 400.34 531.951 399.585C532.365 398.842 532.573 397.983 532.573 397.008C532.573 396.046 532.365 395.187 531.951 394.432C531.549 393.689 530.988 393.104 530.268 392.677C529.549 392.263 528.72 392.056 527.781 392.056C526.843 392.056 526.014 392.269 525.294 392.696C524.575 393.122 524.008 393.707 523.594 394.45Z" fill="white"/>
<defs>
<filter id="filter0_f_221_430" x="108" y="76" width="656" height="656" filterUnits="userSpaceOnUse" color-interpolation-filters="sRGB">
<feFlood flood-opacity="0" result="BackgroundImageFix"/>
<feBlend mode="normal" in="SourceGraphic" in2="BackgroundImageFix" result="shape"/>
<feGaussianBlur stdDeviation="90" result="effect1_foregroundBlur_221_430"/>
</filter>
<filter id="filter1_f_221_430" x="264" y="251.911" width="343.935" height="324.089" filterUnits="userSpaceOnUse" color-interpolation-filters="sRGB">
<feFlood flood-opacity="0" result="BackgroundImageFix"/>
<feBlend mode="normal" in="SourceGraphic" in2="BackgroundImageFix" result="shape"/>
<feGaussianBlur stdDeviation="12" result="effect1_foregroundBlur_221_430"/>
</filter>
</defs>
</svg>
