<svg width="214" height="49" viewBox="0 0 214 49" fill="none" xmlns="http://www.w3.org/2000/svg">
<path fill-rule="evenodd" clip-rule="evenodd" d="M55.3981 46.6121C52.0253 46.6121 49.0322 45.9174 46.4182 44.5279C43.8466 43.0964 41.8229 41.1385 40.3474 38.6542C38.8718 36.17 38.134 33.3068 38.134 30.0648C38.134 26.8227 38.8508 23.9595 40.2841 21.4753C41.7597 18.991 43.7834 17.0543 46.3549 15.6647C48.9689 14.2332 51.9411 13.5174 55.2717 13.5174C58.6442 13.5174 61.6164 14.2332 64.1882 15.6647C66.8019 17.0543 68.8256 18.991 70.259 21.4753C71.7346 23.9595 72.4724 26.8227 72.4724 30.0648C72.4724 33.3068 71.7346 36.17 70.259 38.6542C68.8256 41.1385 66.8232 43.0964 64.2514 44.5279C61.6796 45.9174 58.7287 46.6121 55.3981 46.6121ZM60.3605 27.4029C60.3942 27.4619 60.4269 27.5214 60.4585 27.5816C60.642 27.0565 60.6204 26.5975 60.3936 26.2047C60.1284 25.7453 59.6444 25.4837 58.9417 25.4199C58.8772 25.4132 58.8674 25.303 58.9314 25.2921C59.5836 25.1801 60.1682 25.1532 60.6853 25.2113C61.5863 25.3 62.2088 25.6423 62.5529 26.2382C62.897 26.8341 62.8821 27.5444 62.5084 28.369C62.153 29.1831 61.4959 30.0423 60.537 30.9468C59.5737 31.8435 58.3728 32.7071 56.9343 33.5376C55.4775 34.3787 54.111 34.9974 52.8345 35.3938C51.5719 35.772 50.49 35.9167 49.5891 35.828C48.6881 35.7394 48.0656 35.3971 47.7215 34.8011C47.3774 34.2052 47.3832 33.5001 47.7386 32.6861C47.9567 32.2048 48.2753 31.7112 48.6942 31.2054C48.7352 31.156 48.8239 31.2188 48.797 31.277C48.5152 31.9091 48.5068 32.455 48.7721 32.9144C48.9975 33.3048 49.3808 33.5524 49.9219 33.6571L49.9075 33.6319C49.3918 32.7311 49.134 31.693 49.134 30.5174C49.134 29.3418 49.3845 28.3037 49.8854 27.4029C50.401 26.5021 51.1082 25.7999 52.0069 25.296C52.9204 24.777 53.9591 24.5174 55.123 24.5174C56.3016 24.5174 57.3402 24.777 58.239 25.296C59.1524 25.7999 59.8596 26.5021 60.3605 27.4029ZM53.446 36.3156C53.9843 36.4501 54.558 36.5174 55.1672 36.5174C56.3311 36.5174 57.3623 36.2655 58.2611 35.7617C59.1598 35.2426 59.8596 34.5327 60.3605 33.6319C60.7864 32.8879 61.0365 32.05 61.1106 31.1185C60.9132 31.3601 60.7007 31.594 60.4763 31.8094C59.5886 32.65 58.4822 33.4595 57.1567 34.2381C56.8785 34.4015 56.4616 34.5891 56.0031 34.7954C55.0264 35.2349 53.861 35.7593 53.446 36.3156Z" fill="#D6BCFA"/>
<path d="M118.919 15.1806H108.168V46.7595H119.551V29.9595C119.551 28.2332 119.952 26.97 120.753 26.17C121.553 25.3701 122.755 25.0122 124.357 25.0964C125.158 25.1385 125.811 25.3701 126.318 25.7911C126.865 26.2121 127.266 26.8227 127.519 27.6226C127.814 28.3806 127.962 29.3701 127.962 30.5911V46.7595H139.344V29.9595C139.344 28.2332 139.745 26.97 140.546 26.17C141.347 25.3701 142.549 25.0122 144.151 25.0964C144.952 25.1385 145.605 25.3701 146.111 25.7911C146.659 26.2121 147.06 26.8227 147.312 27.6226C147.608 28.3806 147.755 29.3701 147.755 30.5911V46.7595H159.138V28.6964C159.138 23.8121 158.211 20.2121 156.356 17.8963C154.501 15.5805 151.634 14.4227 147.755 14.4227C145.563 14.4227 143.602 15.0332 141.874 16.2542C140.348 17.2952 139.101 18.7794 138.133 20.7067C137.717 19.6212 137.193 18.6844 136.562 17.8963C134.707 15.5805 131.84 14.4227 127.962 14.4227C125.769 14.4227 123.809 15.0332 122.081 16.2542C121.294 16.7904 120.302 17.899 119.363 19.2642L118.919 15.1806Z" fill="#D6BCFA"/>
<path d="M169.458 12.6316C167.771 12.6316 166.296 12 165.031 10.7368C163.766 9.47363 163.134 8 163.134 6.3158C163.134 4.58948 163.766 3.11584 165.031 1.89478C166.296 0.631592 167.771 0 169.458 0C171.186 0 172.662 0.631592 173.884 1.89478C175.149 3.11584 175.781 4.58948 175.781 6.3158C175.781 8 175.149 9.47363 173.884 10.7368C172.662 12 171.186 12.6316 169.458 12.6316Z" fill="#D6BCFA"/>
<path d="M163.766 46.7595V16.6434C163.766 15.8801 164.455 15.3017 165.207 15.4337C168.019 15.9279 170.896 15.9279 173.708 15.4337C174.46 15.3017 175.149 15.8801 175.149 16.6434V46.7595H163.766Z" fill="#D6BCFA"/>
<path d="M89.5552 47.5174C87.4472 47.5174 85.4868 47.2226 83.674 46.6331C81.8611 46.0438 80.3012 45.2227 78.9944 44.17C77.7297 43.0753 76.8442 41.7701 76.3384 40.2542L85.3813 36.7174C85.8452 37.8542 86.4988 38.5911 87.3418 38.9279C88.185 39.2227 88.9228 39.3701 89.5552 39.3701C90.2297 39.3701 90.7778 39.2227 91.1994 38.9279C91.6208 38.6332 91.8318 38.2121 91.8318 37.6647C91.8318 37.0753 91.5366 36.5911 90.9463 36.2121C90.3562 35.7911 89.4497 35.4332 88.227 35.1385L85.6343 34.5069C82.8098 33.7911 80.6806 32.549 79.2473 30.7806C77.8139 29.0122 77.0971 26.9489 77.0971 24.5911C77.0971 21.3489 78.2776 18.8437 80.6386 17.0753C83.0417 15.3068 86.2878 14.4227 90.3772 14.4227C92.8647 14.4227 94.9514 14.7385 96.6379 15.3701C98.3664 15.9595 99.7785 16.8016 100.875 17.8963C101.971 18.991 102.814 20.2542 103.404 21.6859L94.6142 25.0332C94.3191 24.1911 93.8132 23.5805 93.0964 23.2016C92.4219 22.8227 91.5788 22.6332 90.5669 22.6332C89.8503 22.6332 89.2812 22.8016 88.8596 23.1385C88.4802 23.4753 88.2905 23.8753 88.2905 24.3384C88.2905 24.8437 88.5854 25.2858 89.1758 25.6647C89.8081 26.0017 90.7566 26.3384 92.0215 26.6752L94.6142 27.3068C96.5534 27.7701 98.24 28.4858 99.6733 29.4543C101.107 30.3806 102.224 31.5384 103.025 32.9279C103.826 34.3175 104.226 35.9174 104.226 37.728C104.226 39.7911 103.615 41.5595 102.393 43.0331C101.17 44.4648 99.4624 45.5805 97.2702 46.3806C95.0779 47.1385 92.5063 47.5174 89.5552 47.5174Z" fill="#D6BCFA"/>
<path fill-rule="evenodd" clip-rule="evenodd" d="M17.0528 14.4228C17.0811 14.4227 17.1094 14.4227 17.1377 14.4227C20.5103 14.4227 23.4824 15.1385 26.0542 16.57C28.668 17.9595 30.6917 19.8963 32.125 22.3806C33.3358 24.419 34.0498 26.7125 34.2671 29.2612C34.2789 29.3995 34.1691 29.5174 34.0302 29.5174C33.9115 29.5174 33.8109 29.4302 33.7922 29.313C33.4808 27.3625 32.8196 25.5821 31.8084 23.9716C31.0154 22.6713 30.0398 21.5311 28.8818 20.551L21.3388 26.6797C21.694 27.0415 21.9974 27.4552 22.249 27.9209C22.7442 28.8255 22.9919 29.854 22.9919 31.0065C22.9919 32.1736 22.7442 33.2021 22.249 34.092C21.996 34.568 21.6906 34.9874 21.3328 35.3503L30.2323 42.5812C29.0297 44.0591 27.5723 45.2925 25.8601 46.2814C23.3136 47.709 20.3918 48.4227 17.094 48.4227C13.7545 48.4227 10.7908 47.709 8.20255 46.2814C5.65635 44.8108 3.65261 42.7993 2.19157 40.2471C0.730523 37.6949 0 34.7534 0 31.4227C0 31.3453 0.000383143 31.2681 0.00114943 31.1911C0.000382966 31.1176 0 31.0439 0 30.97C0 27.728 0.716797 24.8648 2.15015 22.3806C3.62573 19.8963 5.64941 17.9595 8.22095 16.57C8.60342 16.3606 8.99356 16.1664 9.39137 15.9876C11.6655 14.9444 14.1913 14.4227 16.9688 14.4227C16.9968 14.4227 17.0248 14.4227 17.0528 14.4228ZM12.9462 28.45C12.5439 29.2053 12.3428 30.0702 12.3428 31.0448C12.3428 32.0073 12.5439 32.86 12.9462 33.6031C13.3607 34.3463 13.9276 34.9249 14.6469 35.3391C15.3662 35.7654 16.1953 35.9786 17.134 35.9786C18.0727 35.9786 18.9017 35.7654 19.621 35.3391C20.3403 34.9249 20.9011 34.3401 21.3034 33.5848C21.7179 32.8417 21.9252 31.9828 21.9252 31.0083C21.9252 30.0459 21.7179 29.1871 21.3034 28.4317C20.9011 27.6886 20.3403 27.1039 19.621 26.6775C18.9017 26.2633 18.0727 26.0562 17.134 26.0562C16.1953 26.0562 15.3662 26.2694 14.6469 26.6957C13.9276 27.1221 13.3607 27.7069 12.9462 28.45Z" fill="#D6BCFA"/>
<path fill-rule="evenodd" clip-rule="evenodd" d="M196.7 14.4228C196.729 14.4227 196.757 14.4227 196.785 14.4227C200.158 14.4227 203.13 15.1385 205.702 16.57C208.315 17.9595 210.339 19.8963 211.772 22.3806C212.983 24.419 213.697 26.7125 213.915 29.2612C213.926 29.3995 213.816 29.5174 213.678 29.5174C213.559 29.5174 213.458 29.4302 213.44 29.313C213.128 27.3625 212.467 25.5821 211.456 23.9716C210.663 22.6713 209.687 21.5311 208.529 20.551L200.986 26.6797C201.341 27.0415 201.645 27.4552 201.896 27.9209C202.392 28.8255 202.639 29.854 202.639 31.0065C202.639 32.1736 202.392 33.2021 201.896 34.092C201.643 34.568 201.338 34.9874 200.98 35.3503L209.88 42.5812C208.677 44.0591 207.22 45.2925 205.507 46.2814C202.961 47.709 200.039 48.4227 196.741 48.4227C193.402 48.4227 190.438 47.709 187.85 46.2814C185.304 44.8108 183.3 42.7993 181.839 40.2471C180.378 37.6949 179.647 34.7534 179.647 31.4227C179.647 31.3453 179.648 31.2681 179.649 31.1911C179.648 31.1176 179.647 31.0439 179.647 30.97C179.647 27.728 180.364 24.8648 181.798 22.3806C183.273 19.8963 185.297 17.9595 187.868 16.57C188.251 16.3606 188.641 16.1664 189.039 15.9876C191.313 14.9444 193.839 14.4227 196.616 14.4227C196.644 14.4227 196.672 14.4227 196.7 14.4228ZM192.594 28.45C192.191 29.2053 191.99 30.0702 191.99 31.0448C191.99 32.0073 192.191 32.86 192.594 33.6031C193.008 34.3463 193.575 34.9249 194.294 35.3391C195.014 35.7654 195.843 35.9786 196.781 35.9786C197.72 35.9786 198.549 35.7654 199.268 35.3391C199.988 34.9249 200.549 34.3401 200.951 33.5848C201.365 32.8417 201.573 31.9828 201.573 31.0083C201.573 30.0459 201.365 29.1871 200.951 28.4317C200.549 27.6886 199.988 27.1039 199.268 26.6775C198.549 26.2633 197.72 26.0562 196.781 26.0562C195.843 26.0562 195.014 26.2694 194.294 26.6957C193.575 27.1221 193.008 27.7069 192.594 28.45Z" fill="#D6BCFA"/>
</svg>
