<svg width="585" height="708" viewBox="0 0 585 708" fill="none" xmlns="http://www.w3.org/2000/svg">
<g clip-path="url(#clip0_276_431)">
<g opacity="0.7" filter="url(#filter0_f_276_431)">
<circle cx="265" cy="324" r="148" fill="black"/>
</g>
<g filter="url(#filter1_f_276_431)">
<path d="M408.56 324C411.012 324 413.007 325.989 412.933 328.44C412.196 353.011 405.348 377.038 392.978 398.335C379.863 420.914 361.009 439.621 338.328 452.557C315.647 465.494 289.948 472.201 263.838 471.995C237.728 471.79 212.137 464.681 189.662 451.39C167.187 438.098 148.629 419.098 135.871 396.316C123.112 373.534 116.608 347.783 117.018 321.675C117.428 295.568 124.738 270.033 138.206 247.664C150.909 226.563 168.665 208.987 189.842 196.504C191.955 195.259 194.658 196.049 195.839 198.197C197.021 200.346 196.232 203.04 194.122 204.289C174.317 216.015 157.709 232.486 145.813 252.244C133.154 273.271 126.283 297.274 125.897 321.815C125.512 346.356 131.626 370.562 143.618 391.977C155.611 413.392 173.056 431.252 194.182 443.746C215.308 456.24 239.364 462.923 263.907 463.116C288.451 463.308 312.608 457.005 333.928 444.844C355.248 432.683 372.971 415.099 385.299 393.875C396.882 373.933 403.315 351.444 404.049 328.439C404.127 325.988 406.108 324 408.56 324Z" fill="#11DCE8"/>
</g>
<circle opacity="0.3" cx="264.797" cy="324" r="143.5" stroke="white"/>
<path d="M408.56 324C411.012 324 413.007 325.989 412.933 328.44C412.196 353.011 405.348 377.038 392.978 398.335C379.863 420.914 361.009 439.621 338.328 452.557C315.647 465.494 289.948 472.201 263.838 471.995C237.728 471.79 212.137 464.681 189.662 451.39C167.187 438.098 148.629 419.098 135.871 396.316C123.112 373.534 116.608 347.783 117.018 321.675C117.428 295.568 124.738 270.033 138.206 247.664C150.909 226.563 168.665 208.987 189.842 196.504C191.955 195.259 194.658 196.049 195.839 198.197C197.021 200.346 196.232 203.04 194.122 204.289C174.317 216.015 157.709 232.486 145.813 252.244C133.154 273.271 126.283 297.274 125.897 321.815C125.512 346.356 131.626 370.562 143.618 391.977C155.611 413.392 173.056 431.252 194.182 443.746C215.308 456.24 239.364 462.923 263.907 463.116C288.451 463.308 312.608 457.005 333.928 444.844C355.248 432.683 372.971 415.099 385.299 393.875C396.882 373.933 403.315 351.444 404.049 328.439C404.127 325.988 406.108 324 408.56 324Z" fill="white"/>
<path fill-rule="evenodd" clip-rule="evenodd" d="M215.398 332.612C212.025 332.612 209.032 331.917 206.418 330.528C203.847 329.096 201.823 327.138 200.347 324.654C198.872 322.17 198.134 319.307 198.134 316.065C198.134 312.823 198.851 309.96 200.284 307.475C201.76 304.991 203.783 303.054 206.355 301.665C208.969 300.233 211.941 299.517 215.272 299.517C218.644 299.517 221.616 300.233 224.188 301.665C226.802 303.054 228.826 304.991 230.259 307.475C231.735 309.96 232.472 312.823 232.472 316.065C232.472 319.307 231.735 322.17 230.259 324.654C228.826 327.138 226.823 329.096 224.251 330.528C221.68 331.917 218.729 332.612 215.398 332.612ZM220.36 313.403C220.394 313.462 220.427 313.521 220.458 313.582C220.642 313.057 220.62 312.598 220.394 312.205C220.128 311.745 219.644 311.484 218.942 311.42C218.877 311.413 218.867 311.303 218.931 311.292C219.584 311.18 220.168 311.153 220.685 311.211C221.586 311.3 222.209 311.642 222.553 312.238C222.897 312.834 222.882 313.544 222.508 314.369C222.153 315.183 221.496 316.042 220.537 316.947C219.574 317.844 218.373 318.707 216.934 319.538C215.478 320.379 214.111 320.997 212.834 321.394C211.572 321.772 210.49 321.917 209.589 321.828C208.688 321.739 208.066 321.397 207.721 320.801C207.377 320.205 207.383 319.5 207.739 318.686C207.957 318.205 208.275 317.711 208.694 317.205C208.735 317.156 208.824 317.219 208.797 317.277C208.515 317.909 208.507 318.455 208.772 318.914C208.997 319.305 209.381 319.552 209.922 319.657L209.907 319.632C209.392 318.731 209.134 317.693 209.134 316.517C209.134 315.342 209.384 314.304 209.885 313.403C210.401 312.502 211.108 311.8 212.007 311.296C212.92 310.777 213.959 310.517 215.123 310.517C216.302 310.517 217.34 310.777 218.239 311.296C219.152 311.8 219.86 312.502 220.36 313.403ZM213.446 322.316C213.984 322.45 214.558 322.517 215.167 322.517C216.331 322.517 217.362 322.266 218.261 321.762C219.16 321.243 219.86 320.533 220.36 319.632C220.786 318.888 221.036 318.05 221.111 317.119C220.913 317.36 220.701 317.594 220.476 317.809C219.589 318.65 218.482 319.46 217.157 320.238C216.878 320.402 216.462 320.589 216.003 320.795C215.026 321.235 213.861 321.759 213.446 322.316Z" fill="white"/>
<path d="M278.919 301.181H268.168V332.759H279.551V315.96C279.551 314.233 279.952 312.97 280.753 312.17C281.553 311.37 282.755 311.012 284.357 311.096C285.158 311.138 285.811 311.37 286.318 311.791C286.865 312.212 287.266 312.823 287.519 313.623C287.814 314.381 287.962 315.37 287.962 316.591V332.759H299.344V315.96C299.344 314.233 299.745 312.97 300.546 312.17C301.347 311.37 302.549 311.012 304.151 311.096C304.952 311.138 305.605 311.37 306.111 311.791C306.659 312.212 307.06 312.823 307.312 313.623C307.608 314.381 307.755 315.37 307.755 316.591V332.759H319.138V314.696C319.138 309.812 318.211 306.212 316.356 303.896C314.501 301.581 311.634 300.423 307.755 300.423C305.563 300.423 303.602 301.033 301.874 302.254C300.348 303.295 299.101 304.779 298.133 306.707C297.717 305.621 297.193 304.684 296.562 303.896C294.707 301.581 291.84 300.423 287.962 300.423C285.769 300.423 283.809 301.033 282.081 302.254C281.294 302.79 280.302 303.899 279.363 305.264L278.919 301.181Z" fill="white"/>
<path d="M329.458 298.632C327.771 298.632 326.296 298 325.031 296.737C323.766 295.474 323.134 294 323.134 292.316C323.134 290.589 323.766 289.116 325.031 287.895C326.296 286.632 327.771 286 329.458 286C331.186 286 332.662 286.632 333.884 287.895C335.149 289.116 335.781 290.589 335.781 292.316C335.781 294 335.149 295.474 333.884 296.737C332.662 298 331.186 298.632 329.458 298.632Z" fill="white"/>
<path d="M323.766 332.759V302.643C323.766 301.88 324.455 301.302 325.207 301.434Lnan nanCnan nan -nan -nan -nan -nanL-nan -nanC-nan -nan nan nan nan nanL325.207 301.434C328.019 301.928 330.896 301.928 333.708 301.434Lnan nanCnan nan -nan -nan -nan -nanL-nan -nanC-nan -nan nan nan nan nanL333.708 301.434C334.46 301.302 335.149 301.88 335.149 302.643V332.759H323.766Z" fill="white"/>
<path d="M249.555 333.517C247.447 333.517 245.487 333.223 243.674 332.633C241.861 332.044 240.301 331.223 238.994 330.17C237.73 329.075 236.844 327.77 236.338 326.254L245.381 322.717C245.845 323.854 246.499 324.591 247.342 324.928C248.185 325.223 248.923 325.37 249.555 325.37C250.23 325.37 250.778 325.223 251.199 324.928C251.621 324.633 251.832 324.212 251.832 323.665C251.832 323.075 251.537 322.591 250.946 322.212C250.356 321.791 249.45 321.433 248.227 321.138L245.634 320.507C242.81 319.791 240.681 318.549 239.247 316.781C237.814 315.012 237.097 312.949 237.097 310.591C237.097 307.349 238.278 304.844 240.639 303.075C243.042 301.307 246.288 300.423 250.377 300.423C252.865 300.423 254.951 300.738 256.638 301.37C258.366 301.96 259.779 302.802 260.875 303.896C261.971 304.991 262.814 306.254 263.404 307.686L254.614 311.033C254.319 310.191 253.813 309.581 253.096 309.202C252.422 308.823 251.579 308.633 250.567 308.633C249.85 308.633 249.281 308.802 248.86 309.138C248.48 309.475 248.291 309.875 248.291 310.338C248.291 310.844 248.585 311.286 249.176 311.665C249.808 312.002 250.757 312.338 252.021 312.675L254.614 313.307C256.553 313.77 258.24 314.486 259.673 315.454C261.107 316.381 262.224 317.538 263.025 318.928C263.826 320.317 264.226 321.917 264.226 323.728C264.226 325.791 263.615 327.56 262.393 329.033C261.17 330.465 259.462 331.581 257.27 332.381C255.078 333.138 252.506 333.517 249.555 333.517Z" fill="white"/>
<path fill-rule="evenodd" clip-rule="evenodd" d="M181.339 312.68L189.814 305.794C188.684 304.537 187.345 303.483 185.797 302.629C183.251 301.158 180.308 300.423 176.969 300.423C173.671 300.423 170.728 301.158 168.14 302.629C165.594 304.056 163.59 306.046 162.129 308.598C160.71 311.15 160 314.092 160 317.423C160 317.5 160 317.576 160.001 317.653C160 317.727 160 317.801 160 317.875C160 321.117 160.717 323.981 162.15 326.465C163.536 328.799 165.406 330.649 167.76 332.017C167.906 332.107 168.053 332.195 168.203 332.281C170.791 333.709 173.754 334.423 177.094 334.423C177.101 334.423 177.109 334.423 177.116 334.423C177.123 334.423 177.13 334.423 177.138 334.423C180.51 334.423 183.482 333.707 186.054 332.275C188.668 330.886 190.692 328.949 192.125 326.465C193.336 324.426 194.05 322.133 194.267 319.584C194.279 319.446 194.169 319.328 194.03 319.328C193.911 319.328 193.811 319.415 193.792 319.532C193.481 321.483 192.82 323.263 191.808 324.874C191.127 325.991 190.31 326.991 189.359 327.872L181.333 321.35C181.691 320.987 181.996 320.568 182.249 320.092C182.744 319.202 182.992 318.174 182.992 317.007C182.992 315.854 182.744 314.825 182.249 313.921C181.997 313.455 181.694 313.041 181.339 312.68ZM172.946 314.45C172.544 315.205 172.343 316.07 172.343 317.045C172.343 318.007 172.544 318.86 172.946 319.603C173.361 320.346 173.928 320.925 174.647 321.339C175.366 321.765 176.195 321.979 177.134 321.979C178.073 321.979 178.902 321.765 179.621 321.339C180.34 320.925 180.901 320.34 181.303 319.585C181.718 318.842 181.925 317.983 181.925 317.008C181.925 316.046 181.718 315.187 181.303 314.432C180.901 313.689 180.34 313.104 179.621 312.677C178.902 312.263 178.073 312.056 177.134 312.056C176.195 312.056 175.366 312.269 174.647 312.696C173.928 313.122 173.361 313.707 172.946 314.45Z" fill="white"/>
<path fill-rule="evenodd" clip-rule="evenodd" d="M360.986 312.68L369.461 305.794C368.332 304.537 366.993 303.483 365.445 302.629C362.898 301.158 359.956 300.423 356.616 300.423C353.318 300.423 350.376 301.158 347.787 302.629C345.241 304.056 343.237 306.046 341.776 308.598C340.357 311.15 339.647 314.092 339.647 317.423C339.647 317.5 339.648 317.576 339.649 317.653C339.648 317.727 339.647 317.801 339.647 317.875C339.647 321.117 340.364 323.981 341.798 326.465C343.184 328.799 345.054 330.649 347.407 332.017C347.553 332.107 347.701 332.195 347.85 332.281C350.438 333.709 353.402 334.423 356.741 334.423C356.749 334.423 356.756 334.423 356.763 334.423C356.771 334.423 356.778 334.423 356.785 334.423C360.158 334.423 363.13 333.707 365.702 332.275C368.315 330.886 370.339 328.949 371.772 326.465C372.983 324.426 373.697 322.133 373.915 319.584C373.926 319.446 373.817 319.328 373.678 319.328C373.559 319.328 373.458 319.415 373.44 319.532C373.128 321.483 372.467 323.263 371.456 324.874C370.774 325.991 369.958 326.991 369.007 327.872L360.98 321.35C361.338 320.987 361.643 320.568 361.896 320.092C362.392 319.202 362.639 318.174 362.639 317.007C362.639 315.854 362.392 314.825 361.896 313.921C361.645 313.455 361.341 313.041 360.986 312.68ZM352.594 314.45C352.191 315.205 351.99 316.07 351.99 317.045C351.99 318.007 352.191 318.86 352.594 319.603C353.008 320.346 353.575 320.925 354.294 321.339C355.014 321.765 355.843 321.979 356.781 321.979C357.72 321.979 358.549 321.765 359.268 321.339C359.988 320.925 360.549 320.34 360.951 319.585C361.365 318.842 361.573 317.983 361.573 317.008C361.573 316.046 361.365 315.187 360.951 314.432C360.549 313.689 359.988 313.104 359.268 312.677C358.549 312.263 357.72 312.056 356.781 312.056C355.843 312.056 355.014 312.269 354.294 312.696C353.575 313.122 353.008 313.707 352.594 314.45Z" fill="white"/>
</g>
<defs>
<filter id="filter0_f_276_431" x="-63" y="-4" width="656" height="656" filterUnits="userSpaceOnUse" color-interpolation-filters="sRGB">
<feFlood flood-opacity="0" result="BackgroundImageFix"/>
<feBlend mode="normal" in="SourceGraphic" in2="BackgroundImageFix" result="shape"/>
<feGaussianBlur stdDeviation="90" result="effect1_foregroundBlur_276_431"/>
</filter>
<filter id="filter1_f_276_431" x="93" y="171.911" width="343.935" height="324.089" filterUnits="userSpaceOnUse" color-interpolation-filters="sRGB">
<feFlood flood-opacity="0" result="BackgroundImageFix"/>
<feBlend mode="normal" in="SourceGraphic" in2="BackgroundImageFix" result="shape"/>
<feGaussianBlur stdDeviation="12" result="effect1_foregroundBlur_276_431"/>
</filter>
<clipPath id="clip0_276_431">
<rect width="585" height="708" fill="white"/>
</clipPath>
</defs>
</svg>
