<svg width="16" height="17" viewBox="0 0 16 17" fill="none" xmlns="http://www.w3.org/2000/svg">
<path d="M1.5 2.125C0.671875 2.125 0 2.83887 0 3.71875C0 4.22012 0.221875 4.6916 0.6 4.99375L7.4 10.4125C7.75625 10.6947 8.24375 10.6947 8.6 10.4125L15.4 4.99375C15.7781 4.6916 16 4.22012 16 3.71875C16 2.83887 15.3281 2.125 14.5 2.125H1.5ZM0 5.84375V12.75C0 13.9221 0.896875 14.875 2 14.875H14C15.1031 14.875 16 13.9221 16 12.75V5.84375L9.2 11.2625C8.4875 11.8303 7.5125 11.8303 6.8 11.2625L0 5.84375Z" fill="#B794F4"/>
</svg>
