<svg width="52" height="50" viewBox="0 0 52 50" fill="none" xmlns="http://www.w3.org/2000/svg">
<g clip-path="url(#clip0_305_2)">
<path d="M0 10C0 4.47715 4.47715 0 10 0H42C47.5228 0 52 4.47715 52 10V40C52 45.5228 47.5228 50 42 50H10C4.47715 50 0 45.5228 0 40V10Z" fill="#7000FF"/>
<path d="M11.2282 14.2523C11.6149 13.4867 12.4352 13 13.3434 13H38.6559C39.5641 13 40.3845 13.4867 40.7712 14.2523C41.1579 15.018 41.0407 15.9203 40.4665 16.5766L29.7497 28.7992V35.75C29.7497 36.4117 29.3513 37.0188 28.7126 37.3141C28.0739 37.6094 27.3181 37.5492 26.7497 37.15L22.9997 34.525C22.5251 34.1969 22.2497 33.6773 22.2497 33.125V28.7992L11.527 16.5711C10.9587 15.9203 10.8356 15.0125 11.2282 14.2523Z" fill="#EAEAEA"/>
</g>
<defs>
<clipPath id="clip0_305_2">
<rect width="52" height="50" fill="white"/>
</clipPath>
</defs>
</svg>
