<svg width="15" height="16" viewBox="0 0 15 16" fill="none" xmlns="http://www.w3.org/2000/svg">
<g clip-path="url(#clip0_213_946)">
<path d="M4.82143 4.5V6H10.1786V4.5C10.1786 3.11875 8.97991 2 7.5 2C6.02009 2 4.82143 3.11875 4.82143 4.5ZM2.67857 6V4.5C2.67857 2.01562 4.83817 0 7.5 0C10.1618 0 12.3214 2.01562 12.3214 4.5V6H12.8571C14.0391 6 15 6.89688 15 8V14C15 15.1031 14.0391 16 12.8571 16H2.14286C0.960937 16 0 15.1031 0 14V8C0 6.89688 0.960937 6 2.14286 6H2.67857Z" fill="#B794F4"/>
</g>
<defs>
<clipPath id="clip0_213_946">
<rect width="15" height="16" fill="white"/>
</clipPath>
</defs>
</svg>
