<svg width="18" height="20" viewBox="0 0 18 20" fill="none" xmlns="http://www.w3.org/2000/svg">
<g clip-path="url(#clip0_92_98)">
<path d="M14.625 8.125C14.625 9.91797 14.1012 11.5742 13.2188 12.918L17.6695 17.8672C18.109 18.3555 18.109 19.1484 17.6695 19.6367C17.2301 20.125 16.5164 20.125 16.077 19.6367L11.6262 14.6875C10.4168 15.6719 8.92617 16.25 7.3125 16.25C3.27305 16.25 0 12.6133 0 8.125C0 3.63672 3.27305 0 7.3125 0C11.352 0 14.625 3.63672 14.625 8.125ZM7.3125 13.75C7.97732 13.75 8.63562 13.6045 9.24984 13.3218C9.86405 13.0391 10.4221 12.6248 10.8922 12.1025C11.3623 11.5801 11.7352 10.9601 11.9896 10.2776C12.2441 9.59514 12.375 8.86369 12.375 8.125C12.375 7.38631 12.2441 6.65486 11.9896 5.97241C11.7352 5.28995 11.3623 4.66985 10.8922 4.14752C10.4221 3.62519 9.86405 3.21086 9.24984 2.92818C8.63562 2.64549 7.97732 2.5 7.3125 2.5C6.64768 2.5 5.98938 2.64549 5.37516 2.92818C4.76095 3.21086 4.20287 3.62519 3.73277 4.14752C3.26268 4.66985 2.88977 5.28995 2.63536 5.97241C2.38095 6.65486 2.25 7.38631 2.25 8.125C2.25 8.86369 2.38095 9.59514 2.63536 10.2776C2.88977 10.9601 3.26268 11.5801 3.73277 12.1025C4.20287 12.6248 4.76095 13.0391 5.37516 13.3218C5.98938 13.6045 6.64768 13.75 7.3125 13.75Z" fill="black"/>
</g>
<defs>
<clipPath id="clip0_92_98">
<rect width="18" height="20" fill="white"/>
</clipPath>
</defs>
</svg>
